<svg width="1821" height="1377" xmlns="http://www.w3.org/2000/svg" xmlns:xlink="http://www.w3.org/1999/xlink" xml:space="preserve" overflow="hidden"><defs><clipPath id="clip0"><path d="M2238.67 2019.42 1723.38 2019.42 1723.38 898.818 2238.67 898.818ZM1828.49 1714.36C1828.49 1798.6 1896.78 1866.89 1981.02 1866.89 2065.27 1866.89 2133.56 1798.6 2133.56 1714.36 2133.56 1630.12 2065.27 1561.83 1981.02 1561.83 1896.78 1561.83 1828.49 1630.12 1828.49 1714.36Z"/></clipPath><clipPath id="clip1"><path d="M1933.56 1568.24 1569.2 1203.88 2361.6 411.493 2725.96 775.853ZM1859.24 1062.5C1799.67 1122.06 1799.67 1218.64 1859.24 1278.2 1918.81 1337.77 2015.38 1337.77 2074.95 1278.2 2134.52 1218.64 2134.52 1122.06 2074.95 1062.5 2015.38 1002.93 1918.8 1002.93 1859.24 1062.5Z"/></clipPath><clipPath id="clip2"><path d="M2036.87 1033.5 2036.87 518.219 3157.49 518.219 3157.49 1033.5ZM2341.94 623.331C2257.69 623.331 2189.41 691.622 2189.41 775.86 2189.41 860.102 2257.69 928.389 2341.94 928.389 2426.18 928.389 2494.47 860.102 2494.47 775.86 2494.47 691.622 2426.18 623.331 2341.94 623.331Z"/></clipPath></defs><g transform="translate(-1304 -547)"><path d="M0 0 0.000360892 324.803" stroke="#FFC000" stroke-width="13.75" stroke-linecap="round" stroke-linejoin="round" stroke-miterlimit="10" fill="none" fill-rule="evenodd" transform="matrix(6.12323e-17 1 1 -6.12323e-17 2313 774)"/><path d="M0 0 0.000360892 324.803" stroke="#FFC000" stroke-width="13.75" stroke-linecap="round" stroke-linejoin="round" stroke-miterlimit="10" fill="none" fill-rule="evenodd" transform="matrix(0.707107 0.707107 0.707107 -0.707107 1950.44 1187.46)"/><path d="M2602 765.5C2602 903.295 2489.85 1015 2351.5 1015 2279.2 1015 2210.43 983.889 2162.86 929.663" stroke="#FFC000" stroke-width="13.75" stroke-miterlimit="8" fill="none" fill-rule="evenodd"/><text fill="#FFC000" font-family="Tektur,Tektur_MSFontService,sans-serif" font-weight="400" font-size="83" transform="matrix(6.12323e-17 1 -1 6.12323e-17 2406.18 875)">a</text><text fill="#FFC000" font-family="Tektur,Tektur_MSFontService,sans-serif" font-weight="400" font-size="37" transform="matrix(6.12323e-17 1 -1 6.12323e-17 2406.18 925)">3</text><path d="M2144.16 972.113C2241.51 1069.46 2241.14 1227.67 2143.34 1325.47 2111.21 1357.6 2070.98 1380.43 2026.96 1391.5" stroke="#FFC000" stroke-width="13.75" stroke-miterlimit="8" fill="none" fill-rule="evenodd"/><text fill="#FFC000" font-family="Tektur,Tektur_MSFontService,sans-serif" font-weight="400" font-size="83" transform="matrix(0.707107 0.707107 -0.707107 0.707107 2083 1188)">a</text><text fill="#FFC000" font-family="Tektur,Tektur_MSFontService,sans-serif" font-weight="400" font-size="37" transform="matrix(0.707107 0.707107 -0.707107 0.707107 2117.84 1223)">2</text><path d="M1980 1388C2159.49 1388 2305 1533.51 2305 1713" stroke="#FFC000" stroke-width="13.75" stroke-miterlimit="8" fill="none" fill-rule="evenodd"/><path d="M0 0 324.803 0.000360892" stroke="#FFC000" stroke-width="13.75" stroke-linecap="round" stroke-linejoin="round" stroke-miterlimit="10" fill="none" fill-rule="evenodd" transform="matrix(-1 0 0 1 2304.8 1713)"/><path d="M0 0 0.000360892 324.803" stroke="#FFC000" stroke-width="13.75" stroke-linecap="round" stroke-linejoin="round" stroke-miterlimit="10" fill="none" fill-rule="evenodd" transform="matrix(1 0 0 -1 1980 1712.8)"/><text fill="#FFC000" font-family="Tektur,Tektur_MSFontService,sans-serif" font-weight="400" font-size="83" transform="matrix(1 0 0 1 2100.41 1614)">a</text><text fill="#FFC000" font-family="Tektur,Tektur_MSFontService,sans-serif" font-weight="400" font-size="37" transform="matrix(1 0 0 1 2149.68 1614)">1</text><g clip-path="url(#clip0)"><path d="M2268.47 3079.22C2305.58 3079.22 2335.45 3109.09 2335.45 3146.2L2335.45 3751.53C2335.45 3788.64 2305.58 3818.49 2268.47 3818.49 2231.37 3818.49 2201.49 3788.64 2201.49 3751.53L2201.49 3146.2C2201.49 3109.09 2231.37 3079.22 2268.47 3079.22Z" fill="#FFFF00" transform="matrix(-1.00002 1.22465e-16 -1.22467e-16 -1 4249.53 4907.97)"/></g><path d="M2382.87 3193.61C2382.87 3256.79 2331.65 3308.01 2268.47 3308.01 2205.29 3308.01 2154.08 3256.79 2154.08 3193.61 2154.08 3130.43 2205.29 3079.22 2268.47 3079.22 2331.65 3079.22 2382.87 3130.43 2382.87 3193.61Z" fill="#FFFF00" transform="matrix(-1.00002 1.22465e-16 -1.22467e-16 -1 4249.53 4907.97)"/><g clip-path="url(#clip1)"><path d="M1886.2 1251.24C1859.96 1225 1859.96 1182.76 1886.2 1156.52L2314.25 728.48C2340.49 702.242 2382.72 702.253 2408.96 728.491 2435.2 754.729 2435.21 796.965 2408.97 823.204L1980.93 1251.24C1954.69 1277.48 1912.44 1277.48 1886.2 1251.24Z" fill="#FFFF00"/></g><path d="M1886.2 1089.46C1930.88 1044.78 2003.31 1044.78 2047.99 1089.46 2092.66 1134.13 2092.66 1206.57 2047.99 1251.24 2003.31 1295.92 1930.88 1295.92 1886.2 1251.24 1841.53 1206.57 1841.53 1134.13 1886.2 1089.46Z" fill="#FFFF00"/><g clip-path="url(#clip2)"><path d="M2268.47 3079.22C2305.58 3079.22 2335.45 3109.09 2335.45 3146.2L2335.45 3751.53C2335.45 3788.64 2305.58 3818.49 2268.47 3818.49 2231.37 3818.49 2201.49 3788.64 2201.49 3751.53L2201.49 3146.2C2201.49 3109.09 2231.37 3079.22 2268.47 3079.22Z" fill="#FFFF00" transform="matrix(6.12333e-17 -1 1.00002 6.12323e-17 -851.726 3044.33)"/></g><path d="M2382.87 3193.61C2382.87 3256.79 2331.65 3308.01 2268.47 3308.01 2205.29 3308.01 2154.08 3256.79 2154.08 3193.61 2154.08 3130.43 2205.29 3079.22 2268.47 3079.22 2331.65 3079.22 2382.87 3130.43 2382.87 3193.61Z" fill="#FFFF00" transform="matrix(6.12333e-17 -1 1.00002 6.12323e-17 -851.726 3044.33)"/></g></svg>